<?xml version="1.0" encoding="UTF-8" standalone="no"?>
<!-- Created with Inkscape (http://www.inkscape.org/) -->

<svg
   xmlns:dc="http://purl.org/dc/elements/1.1/"
   xmlns:cc="http://creativecommons.org/ns#"
   xmlns:rdf="http://www.w3.org/1999/02/22-rdf-syntax-ns#"
   xmlns:svg="http://www.w3.org/2000/svg"
   xmlns="http://www.w3.org/2000/svg"
   version="1.1"
   width="510.1875"
   height="348.53125"
   id="svg7437">
  <defs
     id="defs7439" />
  <metadata
     id="metadata7442">
    <rdf:RDF>
      <cc:Work
         rdf:about="">
        <dc:format>image/svg+xml</dc:format>
        <dc:type
           rdf:resource="http://purl.org/dc/dcmitype/StillImage" />
        <dc:title></dc:title>
      </cc:Work>
    </rdf:RDF>
  </metadata>
  <g
     transform="translate(163.65625,-383.8125)"
     id="layer1">
    <path
       d="m 319.77184,383.93502 0,2.9385 c -152.23915,0 -304.478296,0 -456.71744,0 l 0,-2.7838 -9.4341,0 0,2.8457 -14.2593,0 0,14.3829 -2.9074,0 0,9.3721 2.9074,0 c 0,98.2574 0,196.5147 0,294.7721 l -2.9074,0 0,9.3721 2.9074,0 0,14.383 14.2593,0 0,2.8457 9.4341,0 0,-2.7838 c 152.239144,0 304.47829,0 456.71744,0 l 0,2.9384 9.3721,0 0,-2.9384 14.3829,0 0,-14.2593 2.8767,0 0,-9.4339 -2.8147,0 0,-265.0164 0,-30.0032 2.8147,0 0,-9.434 -2.8767,0 0,-14.2592 -14.3829,0 0,-2.9385 z m 2.0106,1.9487 5.4129,0 0,0.9898 -5.4129,0 z m -466.21354,0.1547 5.5367,0 0,0.8351 -5.5367,0 z m -15.9295,1.0825 13.9809,0 0,1.7013 -12.3106,0 0,12.4961 -1.6703,0 z m 15.9295,0 5.5367,0 0,0.7424 -3.4951,0 -0.092,0.433 0,0.2165 0.092,0.3094 -2.0416,0 z m 7.4855,0 c 152.239144,0 304.47829,0 456.71744,0 l 0,0.5259 -3.8355,0 -0.062,0.4021 0,0.3093 0.062,0.464 c -147.24317,0 -299.605246,0 -448.95384,0 l 0,-0.9589 -3.9281,0 z m 458.72804,0 5.4129,0 0,1.7013 -1.9487,0 0,-1.1754 -3.4642,0 z m 7.3615,0 14.1973,0 0,14.0118 -1.7012,0 0,-12.3105 -12.4961,0 z m -487.55584,1.9796 12.0322,0 0,4.6088 -7.609,0 0,7.609 -4.4232,0 z m 14.0427,0 1.8868,0 0,4.7325 5.5985,0 0,-4.021 1.9178,0 0,7.3615 c 150.867584,0.2512 302.36195,-0.2165 452.85104,-0.2165 l 0,-7.3616 1.8869,0 0,4.052 5.4748,0 0,-4.5469 1.8868,0 0,6.3718 7.6709,0 0,7.6709 6.5883,0 0,1.8868 -4.7634,0 0,5.5986 4.052,0 0,1.8868 -7.3616,0 c 0,97.0407 0,194.0815 0,291.1222 l 7.3616,0 0,1.8868 -4.052,0 0,5.5985 4.7634,0 0,1.8868 -6.5883,0 0,7.671 -7.6709,0 0,6.3718 -1.8868,0 0,-4.5469 -5.4748,0 0,4.052 -1.8869,0 0,-7.3616 c -150.94717,-0.6254 -301.901756,-0.2295 -452.85104,-0.217 l 0,7.3616 -1.9178,0 0,-4.021 -5.5985,0 0,4.7325 -1.8868,0 0,-6.5574 -7.6708,0 0,-7.7019 -6.3719,0 0,-1.8868 4.5469,0 0,-5.4439 -4.0211,0 0,-1.8867 7.3308,0 c 0,-96.9995 0,-193.9991 0,-290.9986 l -7.3308,0 0,-1.8868 4.0211,0 0,-5.4438 -4.5469,0 0,-1.8868 6.3719,0 0,-7.7019 7.6708,0 z m 11.3517,0 c 149.630674,0 299.26136,0 448.89204,0 l 0,5.9079 c -149.28307,0.3655 -299.298646,0.1856 -448.89204,0.1856 z m 462.16144,0 12.2487,0 0,12.0322 -4.6396,0 0,-7.609 -7.6091,0 z m -487.24644,0.2475 0,4.1138 4.1138,0 0,-4.1138 z m 495.13384,0.062 0,4.1138 4.083,0 0,-4.1138 z m -494.85554,0.1856 3.4334,0 0,3.4642 -3.4334,0 z m 479.60664,0 1.5155,0 0,2.1033 -1.5155,0 z m 15.6201,0.093 3.4643,0 0,3.4333 -3.4643,0 z m -477.90534,0.1237 1.6084,0 0,2.0724 -1.6084,0 z m 482.14284,13.2694 1.7012,0 0,5.5367 -0.7114,0 0,-3.5262 -0.4639,-0.062 -0.1856,0 -0.3403,0.062 z m 1.9488,0 0.866,0 0,5.5367 -0.866,0 z m -505.18664,0.1856 0.9588,0 0,5.413 -0.9588,0 z m 1.2372,0 1.6703,0 0,1.9796 -1.1753,0 0,3.4334 -0.495,0 z m 498.93854,3.7117 2.1033,0 0,1.6394 -2.1033,0 z m -496.46404,0.2166 2.0724,0 0,1.4847 -2.0724,0 z m 500.51594,3.3715 0.7114,0 0,26.8172 0,3.1859 0,0.2166 0,8.3204 0,0.2165 0,3.0004 0,253.2625 -0.7114,0 0,-3.8973 -0.9898,0 0,-249.3652 0,-3.0004 0,-0.2165 0,-8.3204 0,-0.2166 0,-3.1859 0,-22.9199 0.9898,0 z m -502.99044,0.1237 0.495,0 0,3.8664 0.402,0.062 0.3403,0 0.433,-0.062 c 0,95.6798 0,191.3595 0,287.0393 l -0.433,-0.062 -0.3403,0 -0.402,0.062 0,3.8664 -0.495,0 c 0,-98.2574 0,-196.5147 0,-294.7721 z m 495.62894,3.7736 6.1243,0 0,34.8593 0,252.3656 -6.1243,0 c 0,-95.7416 0,-191.4833 0,-287.2249 z m -493.68024,0.1546 5.9079,0 c 0,95.6386 0,191.2771 0,286.9157 l -5.9079,0 c 0,-95.6386 0,-191.2771 0,-286.9157 z m -3.1859,292.8544 0.9588,0 0,5.413 -0.9588,0 z m 1.2372,0 0.495,0 0,3.4334 1.1753,0 0,1.9796 -1.6703,0 z m 2.4745,0 2.0724,0 0,1.4847 -2.0724,0 z m 496.46404,0.062 2.1033,0 0,1.6393 -2.1033,0 z m 4.0519,0 0.7114,0 0,5.5366 -1.7012,0 0,-2.0105 0.3403,0.062 0.1856,0 0.4639,-0.062 z m 0.959,0 0.866,0 0,5.5366 -0.866,0 z m -503.94944,7.2996 1.6703,0 0,12.4963 12.3106,0 0,1.7011 -13.9809,0 z m 1.9487,0 4.4232,0 0,7.6091 7.609,0 0,4.6088 -12.0322,0 z m 495.16494,0.1856 4.6396,0 0,12.0323 -12.2487,0 0,-4.4232 7.6091,0 z m 4.887,0 1.7012,0 0,14.0118 -14.1973,0 0,-1.7011 12.4961,0 z m -474.65754,5.9388 c 149.628934,0.4449 299.26459,-0.6955 448.89204,0.1856 l 0,5.9079 c -149.63068,0 -299.261366,0 -448.89204,0 z m 470.04884,1.6703 0,4.1138 4.083,0 0,-4.1138 z m -495.13384,0.062 0,4.1139 4.1138,0 0,-4.1139 z m 495.50504,0.3403 3.4643,0 0,3.4333 -3.4643,0 z m -495.22674,0.062 3.4334,0 0,3.4644 -3.4334,0 z m 17.3214,1.1755 1.6084,0 0,2.0723 -1.6084,0 z m 462.28524,0.1855 1.5155,0 0,2.1034 -1.5155,0 z m -466.21354,2.8766 1.9496,0.09 0.092,0.8691 3.4951,0 0,0.7423 -5.5367,0 z m 11.4136,0 c 149.651274,0 299.30256,0 448.95384,0 l -0.062,0.4639 0,0.3094 0.062,0.402 3.8355,0 0,0.5259 c -152.23915,0 -304.478296,0 -456.71744,0 l 0,-0.7423 3.9281,0 z m 458.26414,0 1.9487,0 0,1.7012 -5.4129,0 0,-0.5259 3.4642,0 z m -469.67774,1.9487 5.5367,0 0,0.8351 -5.5367,0 z m 466.21354,0 5.4129,0 0,0.9897 -5.4129,0 z"
       id="path12077"
       style="font-size:65.77478027px;font-style:normal;font-variant:normal;font-weight:normal;font-stretch:normal;line-height:125%;letter-spacing:0px;word-spacing:0px;fill:#000000;fill-opacity:1;stroke:#000000;stroke-width:0.24744888;stroke-opacity:1;font-family:Border Corners;-inkscape-font-specification:Border Corners" />
  </g>
</svg>
